<?xml version="1.0" encoding="UTF-8"?>
<svg id="Layer_1" data-name="Layer 1" xmlns="http://www.w3.org/2000/svg" viewBox="0 0 434.98 46.2">
  <path d="M20.71.04c2.87,0,5.56.54,8.06,1.63,2.5,1.09,4.7,2.57,6.57,4.45s3.36,4.07,4.45,6.57c1.09,2.5,1.63,5.19,1.63,8.06s-.54,5.56-1.63,8.06c-1.09,2.5-2.57,4.7-4.45,6.57s-4.07,3.36-6.57,4.45c-2.5,1.09-5.19,1.63-8.06,1.63s-5.56-.54-8.06-1.63c-2.5-1.09-4.7-2.57-6.57-4.45s-3.36-4.07-4.45-6.57c-1.09-2.5-1.63-5.19-1.63-8.06s.54-5.56,1.63-8.06c1.09-2.5,2.57-4.7,4.45-6.57s4.07-3.36,6.57-4.45C15.15.58,17.84.04,20.71.04ZM21.05,36.33c1.69,0,3.28-.4,4.75-1.22,1.47-.81,2.76-1.92,3.87-3.34,1.1-1.42,1.97-3.07,2.6-4.97.63-1.9.94-3.91.94-6.05s-.31-4.21-.94-6.1c-.63-1.9-1.49-3.54-2.6-4.94-1.1-1.4-2.39-2.51-3.87-3.34-1.47-.83-3.06-1.24-4.75-1.24s-3.28.41-4.75,1.24c-1.47.83-2.76,1.94-3.87,3.34-1.1,1.4-1.97,3.05-2.6,4.94-.63,1.9-.94,3.93-.94,6.1s.31,4.15.94,6.05c.63,1.9,1.49,3.55,2.6,4.97,1.1,1.42,2.39,2.53,3.87,3.34,1.47.81,3.06,1.22,4.75,1.22Z"/>
  <path d="M69.54,41.05c-1.51-.77-3.13-1.32-4.53-2.46-2.32-1.84-4.3-3.89-5.94-6.16-1.64-2.26-2.9-4.74-3.78-7.43-.11-.4-.24-.73-.39-.97-.15-.24-.31-.45-.5-.64h-.44c-.11-.04-.26-.06-.44-.06h-1.6v5.52c0,1.66.11,3.22.33,4.7.22,1.29.59,2.56,1.1,3.81.52,1.25,1.25,2.23,2.21,2.93l-.22,1.16h-13.7l-.22-1.16c.99-.66,1.69-1.37,2.1-2.13.4-.75.66-1.55.77-2.38.11-.83.12-1.68.03-2.54-.09-.86-.14-1.76-.14-2.68-.04-3.57-.08-7.13-.14-10.66-.06-3.54-.12-7.09-.19-10.66,0-.48.02-.96.06-1.44.04-.48,0-.93-.11-1.35-.11-.42-.32-.81-.64-1.16-.31-.35-.82-.64-1.52-.86-.22-.07-.41-.22-.55-.44-.15-.22-.31-.48-.5-.77-.18-.33-.22-.69-.11-1.08s.33-.69.66-.91c.29-.18.6-.34.91-.47.31-.13.62-.21.91-.25.74-.07,1.48-.12,2.24-.14.75-.02,1.5-.06,2.24-.14,1.77-.04,3.35-.07,4.75-.11.63,0,1.23,0,1.82-.03.59-.02,1.13-.04,1.63-.06s.91-.03,1.24-.03h.66c1.77,0,3.43.3,5,.88,1.56.59,2.93,1.4,4.09,2.43,1.16,1.03,2.08,2.24,2.76,3.62.68,1.38,1.02,2.86,1.02,4.45,0,1.14-.19,2.26-.55,3.34-.37,1.09-.88,2.1-1.52,3.04-.64.94-1.42,1.79-2.32,2.54-.9.76-1.91,1.37-3.01,1.85-.11.44-.02.99.28,1.66.63,1.47,1.3,2.9,2.02,4.28.72,1.38,1.55,2.69,2.49,3.92.94,1.23,2.02,2.35,3.26,3.34,0,0,7.71,9.84,28.51,8.79,0,0,1.47.2,1.26,1.04s-17.15,3.03-31.29-4.17ZM58.22,17.49c1.29-.22,2.38-.84,3.26-1.85.88-1.01,1.33-2.2,1.33-3.56,0-.77-.15-1.49-.44-2.15-.29-.66-.7-1.24-1.22-1.74-.52-.5-1.12-.89-1.82-1.19-.7-.29-1.44-.44-2.21-.44l-4.47-.11c-.18,0-.36.07-.52.22-.17.15-.25.31-.25.5v9.78c0,.18.08.35.25.5.17.15.34.22.52.22l5.58-.17Z"/>
  <path d="M106.55,35.72c.15.29.22.52.22.66h.06v.39s-.02.06-.06.06v.11l-.17.33c-1.88,1.29-3.94,2.31-6.19,3.07-2.25.76-4.62,1.13-7.13,1.13-.29,0-.69,0-1.19-.03-.5-.02-.89-.03-1.19-.03-2.54-.22-4.92-.91-7.13-2.07-2.21-1.16-4.14-2.67-5.8-4.53-1.66-1.86-2.96-4-3.89-6.41-.94-2.41-1.41-4.96-1.41-7.65,0-2.14.29-4.18.88-6.13.59-1.95,1.42-3.76,2.49-5.41,1.07-1.66,2.35-3.13,3.84-4.42,1.49-1.29,3.12-2.34,4.89-3.15,2.65-1.07,5.49-1.6,8.51-1.6,1.22,0,2.41.09,3.59.28,1.18.18,2.32.44,3.42.77.11.07.32.19.64.33.31.15.51.26.58.33.55.37,1.08.88,1.57,1.55.5.66.91,1.37,1.24,2.13.33.76.56,1.5.69,2.24.13.74.08,1.36-.14,1.88-.3.74-.75,1.21-1.35,1.41-.61.2-1.17-.03-1.68-.69-.37-.48-.72-.96-1.05-1.44-.33-.48-.69-.9-1.08-1.27-.39-.37-.82-.68-1.3-.94-.48-.26-1.03-.4-1.66-.44-.18-.04-.33-.05-.44-.03s-.2.03-.28.03c-2.17,0-4.17.5-5.99,1.49-1.82.99-3.32,2.34-4.5,4.03-1.03,1.36-1.83,2.86-2.4,4.5-.57,1.64-.86,3.38-.86,5.22,0,2.17.4,4.23,1.22,6.16.81,1.93,1.92,3.62,3.34,5.05,1.42,1.44,3.07,2.57,4.94,3.4,1.88.83,3.88,1.24,6.02,1.24,1.44,0,2.82-.19,4.14-.58,1.33-.39,2.58-.93,3.76-1.63.4.15.68.37.83.66Z"/>
  <path d="M143.95,35.72c.15.29.32.59.52.88.2.29.38.59.52.88.18.44.35.88.5,1.33.15.44.31.88.5,1.33l-.17.33c-.29.15-.6.3-.91.47-.31.17-.64.25-.97.25-.81,0-1.55,0-2.21.03-.66.02-1.31.03-1.93.03h-4.25c-.15,0-.3-.04-.44-.11-.37-.07-.65-.11-.83-.11-.11-.07-.28-.15-.5-.22-.07-.07-.16-.12-.25-.14-.09-.02-.19-.06-.3-.14-.07-.15-.17-.28-.28-.39-.04-.52.07-1,.33-1.46.26-.46.59-.91.99-1.35.26-.29.52-.6.77-.91.26-.31.46-.64.61-.97.04-.07.06-.13.06-.17s.02-.09.06-.17c.07-.63.13-1.31.17-2.04.04-.74.09-1.42.17-2.04.07-1.1.1-2.11.08-3.01-.02-.9-.03-1.85-.03-2.84-.04-.77-.33-1.43-.88-1.96-.55-.53-1.23-.8-2.04-.8h-11.38c-.81,0-1.49.28-2.04.83-.55.55-.83,1.22-.83,1.99-.04,1.66-.06,3.23-.06,4.72s.04,3.12.11,4.89c0,.26.06.5.17.72.18.26.4.61.64,1.05.24.44.45.81.64,1.1.11.3.22.57.33.83.11.26.22.52.33.77.15.37.15.73,0,1.08-.15.35-.41.6-.77.75-.37.19-.72.28-1.05.28-.99,0-1.84,0-2.54.03-.7.02-1.38.03-2.04.03h-4.64c-.44,0-.82-.17-1.13-.5-.31-.33-.43-.7-.36-1.1.07-.4.24-.79.5-1.16.26-.37.57-.75.94-1.16.26-.26.52-.61.8-1.05.28-.44.51-.81.69-1.1.11-.22.17-.44.17-.66.04-.81,0-1.61-.08-2.4-.09-.79-.12-1.56-.08-2.29.04-3.94,0-7.87-.14-11.79-.13-3.92-.27-7.85-.41-11.79-.04-.44-.24-.86-.61-1.27-.37-.4-.66-.83-.88-1.27-.11-.26-.22-.51-.33-.75-.11-.24-.22-.51-.33-.8-.15-.37-.15-.73,0-1.08.15-.35.4-.62.77-.8.18-.07.37-.13.55-.17.18-.04.37-.06.55-.06,1.07-.04,2-.06,2.79-.06h7.37c.44,0,.81.17,1.1.5.29.33.4.7.33,1.1-.07.41-.24.79-.5,1.16-.26.37-.59.74-.99,1.1-.37.37-.74.77-1.1,1.22-.37.44-.57.87-.61,1.27-.07,1.58-.11,3.22-.11,4.92v5.19c0,.41.14.74.41.99.28.26.62.39,1.02.39l14.25.55c.4,0,.75-.13,1.02-.39.28-.26.41-.59.41-.99,0-1.8,0-3.75.03-5.83.02-2.08,0-3.95-.08-5.61-.04-.37-.28-.72-.72-1.05s-.79-.7-1.05-1.1c-.15-.22-.28-.44-.39-.66-.11-.22-.24-.46-.39-.72-.18-.4-.19-.79-.03-1.16.17-.37.45-.64.86-.83.18-.07.35-.13.5-.17.15-.04.31-.06.5-.06h2.38c.7,0,1.39,0,2.07.03.68.02,1.37.04,2.07.06.7.02,1.49.06,2.38.14.4.04.83.21,1.27.52.44.31.75.65.94,1.02.07.11.07.26,0,.44-.07.18-.18.38-.33.58-.15.2-.3.4-.47.58-.17.18-.32.31-.47.39-.81.41-1.31.98-1.49,1.71-.18.74-.26,1.47-.22,2.21.04,2.69.04,5.38,0,8.06-.04,2.69-.02,5.38.06,8.06.07,1.84.06,3.76-.06,5.74-.11,1.99.02,3.9.39,5.74,0,.11.04.24.11.39Z"/>
  <path d="M226.75,37.93c.29.11.6.36.91.75s.43.64.36.75c-.18.41-.44.78-.77,1.13-.33.35-.7.56-1.1.64-1.88.4-3.63.36-5.25-.14-1.62-.5-3.13-1.32-4.53-2.46-2.32-1.84-4.3-3.89-5.94-6.16-1.64-2.26-2.9-4.74-3.78-7.43-.11-.4-.24-.73-.39-.97-.15-.24-.31-.45-.5-.64h-.44c-.11-.04-.26-.06-.44-.06h-1.6v5.52c0,1.66.11,3.22.33,4.7.22,1.29.59,2.56,1.1,3.81.52,1.25,1.25,2.23,2.21,2.93l-.22,1.16h-13.7l-.22-1.16c.99-.66,1.69-1.37,2.1-2.13.4-.75.66-1.55.77-2.38.11-.83.12-1.68.03-2.54-.09-.86-.14-1.76-.14-2.68-.04-3.57-.08-7.13-.14-10.66-.05-3.54-.12-7.09-.19-10.66,0-.48.02-.96.06-1.44.04-.48,0-.93-.11-1.35-.11-.42-.32-.81-.64-1.16-.31-.35-.82-.64-1.52-.86-.22-.07-.41-.22-.55-.44-.15-.22-.31-.48-.5-.77-.18-.33-.22-.69-.11-1.08s.33-.69.66-.91c.29-.18.6-.34.91-.47.31-.13.62-.21.91-.25.74-.07,1.48-.12,2.24-.14.75-.02,1.5-.06,2.24-.14,1.77-.04,3.35-.07,4.75-.11.63,0,1.23,0,1.82-.03.59-.02,1.13-.04,1.63-.06s.91-.03,1.24-.03h.66c1.77,0,3.43.3,5,.88,1.56.59,2.93,1.4,4.09,2.43,1.16,1.03,2.08,2.24,2.76,3.62.68,1.38,1.02,2.86,1.02,4.45,0,1.14-.18,2.26-.55,3.34-.37,1.09-.88,2.1-1.52,3.04s-1.42,1.79-2.32,2.54c-.9.76-1.91,1.37-3.01,1.85-.11.44-.02.99.28,1.66.62,1.47,1.3,2.9,2.02,4.28.72,1.38,1.55,2.69,2.49,3.92.94,1.23,2.02,2.35,3.26,3.34,1.23.99,2.68,1.84,4.34,2.54ZM209.57,17.49c1.29-.22,2.38-.84,3.26-1.85.88-1.01,1.33-2.2,1.33-3.56,0-.77-.15-1.49-.44-2.15-.29-.66-.7-1.24-1.21-1.74-.52-.5-1.12-.89-1.82-1.19-.7-.29-1.44-.44-2.21-.44l-4.47-.11c-.18,0-.36.07-.52.22-.17.15-.25.31-.25.5v9.78c0,.18.08.35.25.5.17.15.34.22.52.22l5.58-.17Z"/>
  <path d="M241.33.04c.74,0,1.55,0,2.46.03.9.02,1.75.06,2.54.11.79.06,1.49.11,2.1.17s.99.08,1.13.08c.92.07,1.98.34,3.18.8,1.2.46,2.41,1.09,3.65,1.88,1.23.79,2.46,1.76,3.67,2.9,1.21,1.14,2.29,2.46,3.23,3.95.94,1.49,1.7,3.15,2.29,4.97.59,1.82.88,3.8.88,5.94,0,2.84-.46,5.43-1.38,7.79-.92,2.36-2.16,4.42-3.73,6.19-1.57,1.77-3.37,3.19-5.41,4.28-2.04,1.09-4.17,1.8-6.38,2.13-1.07.19-2.05.26-2.96.22-.9-.04-1.72-.09-2.46-.17-.15.04-.29.06-.44.06h-.5c-.07,0-.14,0-.19.03-.06.02-.12.03-.19.03v-.06h-12.26c-.33,0-.53-.15-.61-.44-.07-.18-.14-.36-.19-.52-.06-.17-.07-.27-.03-.3h.06s.08-.07.14-.11c.06-.04.1-.07.14-.11,1.14-.59,1.89-1.4,2.24-2.43.35-1.03.56-2.1.63-3.2V6.83c-.04-.52-.22-1.09-.55-1.71-.33-.63-.59-1.12-.77-1.49-.11-.18-.28-.37-.5-.55-.41-.37-.56-.84-.47-1.41.09-.57.4-.97.91-1.19.18-.07.34-.13.47-.17.13-.04.25-.06.36-.06.11-.04.29-.06.55-.06h.44c.26-.04.52-.06.8-.06h1.13c.66,0,1.34,0,2.04-.03.7-.02,1.34-.03,1.93-.03.7,0,1.38-.02,2.04-.06ZM259.39,23.95c.48-2.5.43-4.85-.14-7.04-.57-2.19-1.56-4.09-2.96-5.69s-3.16-2.83-5.27-3.7c-2.12-.86-4.5-1.22-7.15-1.08-.88.07-1.5.27-1.85.58-.35.31-.49.97-.41,1.96.04.7.05,1.68.05,2.96s0,2.71-.03,4.31c-.02,1.6-.05,3.27-.08,5-.04,1.73-.07,3.4-.11,5-.04,1.6-.06,3.07-.06,4.39v3.09c0,.37.14.78.42,1.24.28.46.56.71.86.75,1.22.15,2.5.17,3.87.06,1.36-.11,2.7-.38,4-.8,1.31-.42,2.51-1.02,3.62-1.8,1.11-.77,1.99-1.73,2.65-2.87.41-.66.74-1.22,1-1.68.26-.46.48-.91.66-1.35s.35-.91.5-1.41.29-1.13.44-1.91Z"/>
  <path d="M190.02,40.47c-.22-.33-.43-.65-.64-.97-.2-.31-.4-.62-.58-.91-.33-.44-.71-.86-1.13-1.27-.42-.41-.8-.83-1.13-1.27-.07-.07-.11-.13-.11-.17-.19-.44-.37-.94-.55-1.49-.18-.55-.37-1.12-.55-1.71-.18-.59-.37-1.15-.55-1.69-.18-.53-.37-1.02-.55-1.46-.07-.15-.15-.33-.22-.55-.07-.22-.15-.42-.22-.61-.81-2.32-1.62-4.57-2.43-6.74-.81-2.17-1.6-4.29-2.38-6.35-.77-2.06-1.54-4.12-2.29-6.16-.76-2.04-1.48-4.12-2.18-6.21-.33-1.07-.68-1.82-1.05-2.27-.37-.44-1.05-.64-2.04-.61-1.92.07-3.81.07-5.69,0-1.88-.07-3.77-.04-5.69.11-.22,0-.55.09-.99.28-.52.22-.8.6-.86,1.13-.06.53.12.99.52,1.35.22.18.4.39.55.61.22.48.37,1.06.44,1.74.07.68.07,1.23,0,1.63-.44,1.88-.96,3.94-1.55,6.19-.59,2.25-1.22,4.61-1.88,7.1-.66,2.49-1.35,5.04-2.07,7.65-.72,2.62-1.45,5.25-2.18,7.9-.11.37-.25.64-.41.8-.17.17-.36.3-.58.41-.22.11-.46.23-.72.36-.26.13-.52.36-.77.69-.22.3-.43.67-.64,1.13-.2.46-.43.91-.69,1.35-.04.15-.04.31,0,.5.07.29.28.44.61.44h12.98c.33,0,.53-.15.61-.44.07-.18.07-.35,0-.5-.26-.44-.49-.89-.69-1.35-.2-.46-.41-.84-.63-1.13-.37-.44-.67-.75-.91-.91-.24-.17-.45-.28-.64-.36-.15-.18-.22-.37-.22-.55.15-.81.29-1.72.44-2.73.15-1.01.31-2.02.5-3.04.18-1.01.4-2,.66-2.96.26-.96.55-1.8.88-2.54.11-.26.37-.45.77-.58.4-.13.86-.22,1.38-.28.52-.06,1.06-.1,1.63-.14.57-.04,1.08-.09,1.52-.17.66-.07,1.32-.12,1.96-.14.64-.02,1.3-.06,1.96-.14.85-.07,1.56.06,2.13.39.57.33,1,.92,1.3,1.77.4,1.07.79,2.32,1.16,3.76.37,1.44.79,2.82,1.27,4.14.22.66.42,1.28.61,1.85.18.57.28,1.12.3,1.66.02.53-.09,1.06-.33,1.57-.24.52-.69,1.05-1.35,1.6-.04.04-.03.14.03.3.06.17.12.34.19.52.07.3.28.44.61.44h12.54c.26,0,.45-.11.58-.33.13-.22.12-.44-.03-.66ZM170.31,13.58c-.69.26-1.24.8-1.5,1.5l-.97,5.14-.97-5.14c-.26-.69-.8-1.24-1.5-1.5l-2.61-.97,2.61-.97c.69-.26,1.24-.8,1.5-1.5l.97-4.81.97,4.81c.26.69.8,1.24,1.5,1.5l2.61.97-2.61.97Z"/>
  <g>
    <path d="M354.21,9.85c.89,1.13,1.62,2.43,2.2,3.89h8.23c-.11-.31-.21-.62-.34-.92-.72-1.65-1.62-3.15-2.68-4.53h-8.86c.51.48,1,.99,1.46,1.56Z"/>
    <path d="M378.07,21.51c0-1.31.15-2.56.44-3.77h-9.79c-.15,1.01-.22,2.05-.22,3.11,0,.79.05,1.57.14,2.33h9.52c-.06-.55-.09-1.11-.09-1.68Z"/>
    <path d="M365.78,23.18c.08-.77.13-1.54.13-2.33,0-1.07-.1-2.1-.25-3.11h-8.17c.15,1,.23,2.04.23,3.11,0,.8-.06,1.57-.15,2.33h8.2Z"/>
    <path d="M312.92,11.37c.64.73,1.17,1.52,1.64,2.37h7.13c-.51-1.31-1.11-2.52-1.82-3.64-.4-.64-.83-1.23-1.28-1.81h-9.63c1.54.8,2.86,1.82,3.95,3.07Z"/>
    <path d="M326.31,12.82c-.13.3-.23.61-.34.92h8.89c.58-1.45,1.31-2.76,2.2-3.89.45-.57.94-1.08,1.46-1.56h-9.52c-1.06,1.38-1.97,2.88-2.68,4.53Z"/>
    <path d="M298.21,23.18c.01-.61.03-1.21.04-1.84.03-1.24.05-2.43.06-3.61h-8.64v5.45h8.54Z"/>
    <path d="M298.35,13.74c0-.58,0-1.14,0-1.66,0-1.26-.02-2.25-.05-2.94-.02-.32-.02-.6,0-.85h-8.63v5.45h8.68Z"/>
    <path d="M409.38,18.73c.53.83,1.14,1.57,1.81,2.23.68.66,1.38,1.17,2.12,1.54.04.04.07.06.11.08.04.02.07.05.11.08.15.07.28.13.41.17.13.04.28.09.47.17.16.07.31.13.47.19h17.2c-.57-.62-1.21-1.18-1.95-1.68-1.14-.77-2.44-1.34-3.9-1.7-.26-.07-.69-.18-1.29-.33-.6-.15-1.26-.31-1.95-.49-.7-.18-1.38-.37-2.06-.55-.68-.18-1.22-.33-1.62-.44-.3-.06-.59-.16-.88-.25h-9.64c.19.34.38.67.59.99Z"/>
    <path d="M429.82,4.3c.06-.39.11-.8.14-1.23.04-.49-.06-.91-.27-1.24-.07-.11-.22-.18-.44-.22-.22-.04-.45-.05-.69-.05s-.48.02-.71.05c-.24.04-.41.11-.52.22-.18.18-.31.29-.38.33h-.05c-.15.15-.39.22-.71.22-.11,0-.38-.11-.82-.33s-.99-.47-1.65-.74c-.66-.28-1.4-.52-2.23-.74-.82-.22-1.68-.33-2.56-.33-1.65,0-3.21.28-4.67.85-1.47.57-2.75,1.35-3.85,2.34-.31.28-.59.57-.86.87h20.29Z"/>
    <path d="M426.42,28.96c.56.93.57,2.15.04,3.67h8.39c.02-.17.05-.33.07-.51.15-1.5.05-2.92-.3-4.26-.06-.23-.13-.45-.21-.68h-9.88c.86.55,1.51,1.14,1.9,1.78Z"/>
    <path d="M316.12,23.18h6.81c.07-.73.11-1.46.11-2.22,0-1.12-.09-2.19-.25-3.22h-6.79c.35,1.72.39,3.54.12,5.45Z"/>
    <path d="M371.86,9.36c-.88,1.36-1.58,2.82-2.13,4.38h10.36c.37-.66.77-1.3,1.23-1.91,1-1.44,2.25-2.61,3.72-3.54h-12.43c-.26.35-.51.7-.74,1.07Z"/>
    <path d="M298.08,32.63v-1.94c0-1.07.02-2.26.04-3.51h-8.45v5.45h8.41Z"/>
    <path d="M396.49,8.97c.33.48.68.95,1.04,1.43.51.66,1.07.89,1.68.69.6-.2,1.05-.67,1.35-1.4.17-.4.23-.86.19-1.4h-4.78c.18.21.36.44.52.68Z"/>
    <path d="M333.54,20.85c0-1.07.08-2.11.23-3.11h-8.83c-.15,1.01-.25,2.05-.25,3.11,0,.79.05,1.57.13,2.33h8.86c-.09-.76-.15-1.54-.15-2.33Z"/>
    <path d="M399.31,4.3c-.17-.28-.35-.56-.54-.82-.5-.66-1.02-1.17-1.57-1.54-.07-.07-.27-.18-.58-.33-.31-.15-.52-.26-.63-.33-1.1-.33-2.24-.59-3.41-.77-1.17-.18-2.36-.27-3.57-.27-3.01,0-5.83.53-8.47,1.59-1.44.66-2.78,1.49-4.04,2.47h22.81Z"/>
    <path d="M357.53,4.3c-1.29-.95-2.68-1.78-4.2-2.44-2.49-1.08-5.17-1.62-8.03-1.62s-5.53.54-8.03,1.62c-1.52.66-2.91,1.49-4.2,2.44h24.46Z"/>
    <path d="M289.26,36.63c-.07.28-.13.56-.22.83-.35,1.03-1.09,1.83-2.23,2.42-.04.04-.08.07-.14.11-.06.04-.1.07-.14.11h-.05s-.03.14.03.3c.06.17.12.34.19.52.07.29.27.44.6.44h12.2v.05c.07,0,.14,0,.19-.03.05-.02.12-.03.19-.03h.49c.15,0,.29-.02.44-.06.73.07,1.55.13,2.45.17.9.04,1.88-.04,2.94-.22,2.2-.33,4.32-1.04,6.35-2.12,1.3-.69,2.49-1.54,3.59-2.5h-26.9Z"/>
    <path d="M288.35,3.81c.07.14.16.31.25.49h25.84c-.48-.36-.95-.7-1.43-1.01-1.23-.79-2.44-1.41-3.63-1.87-1.19-.46-2.25-.72-3.16-.8-.15,0-.52-.03-1.13-.08-.6-.06-1.3-.11-2.09-.17-.79-.06-1.63-.09-2.53-.11-.9-.02-1.71-.03-2.45-.03-.66.04-1.34.05-2.03.05-.59,0-1.23,0-1.92.03-.7.02-1.37.03-2.03.03h-1.13c-.27,0-.54.02-.8.05h-.44c-.26,0-.44.02-.55.05-.11,0-.23.02-.36.05-.13.04-.28.09-.47.17-.51.22-.82.61-.91,1.18-.09.57.06,1.04.47,1.4.22.18.38.37.49.55Z"/>
    <path d="M423.69,36.63c-.13.09-.24.2-.37.28-1.43.84-3.1,1.08-5,.71-1.06-.21-2-.54-2.82-.99h-9.65c-.35.67-.77,1.33-1.28,1.98l-.17.17c-.29.51-.29,1.02,0,1.51.29.5.73.8,1.32.91.15.04.37.05.66.05.44-.07.86-.21,1.26-.41.4-.2.81-.41,1.21-.63,1.06-.55,2.11-.82,3.13-.82s2.12.2,3.3.6c1.47.51,2.99.9,4.56,1.15,1.58.26,3.13.37,4.67.33,3.08-.07,5.52-.96,7.31-2.67.68-.65,1.25-1.37,1.71-2.17h-9.86Z"/>
    <path d="M332.06,36.63c1.55,1.31,3.29,2.38,5.21,3.22,2.49,1.08,5.17,1.62,8.03,1.62s5.53-.54,8.03-1.62c1.93-.84,3.66-1.91,5.21-3.22h-26.48Z"/>
    <path d="M397.9,36.63c-.09.03-.17.06-.26.08-1.32.38-2.69.58-4.12.58-1.55,0-3.02-.22-4.43-.66h-13.47c1.2,1.05,2.51,1.97,3.94,2.72,2.2,1.15,4.56,1.84,7.09,2.06.29,0,.69,0,1.18.03.5.02.89.03,1.18.03,2.49,0,4.86-.38,7.09-1.13,2.24-.75,4.29-1.77,6.16-3.05l.17-.33v-.11s.05-.02.05-.05v-.17h-4.58Z"/>
    <path d="M379.28,27.64c-.06-.15-.11-.31-.16-.46h-9.64c.14.43.27.86.43,1.28.58,1.5,1.32,2.88,2.19,4.16h10.48c-1.39-1.42-2.49-3.08-3.29-4.99Z"/>
    <path d="M425.19,8.29c.02.06.04.12.05.19.04.15.14.3.3.47s.36.32.58.47c.22.15.43.26.63.33.2.07.36.09.47.05.37-.15.68-.43.93-.85.14-.22.23-.44.35-.65h-3.31Z"/>
    <path d="M337.06,31.82c-1.04-1.33-1.85-2.88-2.47-4.63h-8.91c.19.57.39,1.14.63,1.69.58,1.34,1.29,2.59,2.1,3.75h9.34c-.24-.26-.47-.53-.7-.81Z"/>
    <path d="M321.66,28.71c.19-.5.36-1.01.51-1.53h-7.05s-.03.11-.05.15c-.18.44-.4.89-.66,1.35-.26.46-.59,1.02-.99,1.68-.5.86-1.13,1.62-1.88,2.27h8.1c.79-1.2,1.47-2.5,2.03-3.92Z"/>
    <path d="M364.3,28.88c.24-.55.44-1.12.63-1.69h-8.25c-.61,1.75-1.43,3.3-2.47,4.63-.22.29-.46.55-.7.81h8.68c.81-1.16,1.52-2.41,2.1-3.75Z"/>
    <path d="M414.35,9.17c.14-.31.33-.59.51-.87h-7.58c-.27.9-.41,1.84-.41,2.82v.28c0,.81.07,1.52.22,2.14.01.07.04.14.06.2h7.01c-.24-.65-.36-1.34-.36-2.07,0-.88.18-1.71.55-2.5Z"/>
    <path d="M411.3,32.34c-.49-.88-.96-1.79-1.4-2.75-.04-.15-.17-.33-.38-.55-.44-.4-.95-.55-1.54-.44-.59.11-1.01.44-1.26.99-.18.33-.24.64-.17.93.19.73.28,1.43.3,2.1h4.64c-.06-.1-.13-.19-.18-.29Z"/>
  </g>
</svg>